<svg xmlns="http://www.w3.org/2000/svg" viewBox="0 0 96.07 96.46"><title>&#x8D44;&#x6E90; 71</title><path d="M48.76 96.46a20.44 20.44 0 0 1-11.36-3.07c-1.5-.89-1.79-2.17-1.16-3.82 2.28-5.94 4.48-11.91 6.74-17.85 2.89-7.6 5.82-15.19 8.72-22.79q5.46-14.28 10.91-28.58c2.29-6 4.63-12 6.81-18A2.15 2.15 0 0 1 71.85.63h22.08c2.23 0 2.54.42 1.75 2.52-3.9 10.39-7.86 20.75-11.74 31.13-3.16 8.44-6.23 16.92-9.38 25.36s-6.12 17.17-9.69 25.53a17.78 17.78 0 0 1-16.11 11.29z" fill="#3d82fe"/><path d="M16.36 45.36c.25-2.78 1.61-5.22 2.54-7.77 3.83-10.4 7.8-20.75 11.76-31.1a22.78 22.78 0 0 0 .92-2.66c.81-3.37 3-3.89 6-3.82C43.9.15 50.22.07 56.54 0c1.8 0 2.52.33 1.92 2.46C57 7.55 55 12.38 53.18 17.28q-9.34 24.8-18.86 49.54c-1.16 3.06-2.43 6.09-3.55 9.17-.3.82-.48 1.51-1.54 1.56s-1.52-.63-1.86-1.54C25 69.64 22.59 63.28 20.2 56.92c-1.14-3.05-2.23-6.12-3.39-9.16a7.34 7.34 0 0 1-.45-2.4zM21.47 1.91c-.68 1.84-1.31 3.57-2 5.3l-7.6 20.31c-.24.62-.33 1.44-1.15 1.45s-.68-.88-.87-1.37C7 19.93 4.06 12.25 1.23 4.55.8 3.4-.72 2.2.41 1 1.26.08 2.82.67 4.06.66c5.13-.05 10.26 0 15.39 0 .99-.02 2.03-.08 2.02 1.25z" fill="#24cc6d"/></svg>