<svg data-v-0dd9719b="" version="1.0" xmlns="http://www.w3.org/2000/svg" xmlns:xlink="http://www.w3.org/1999/xlink" width="100%" height="100%" viewBox="0 0 340.000000 250.000000" preserveAspectRatio="xMidYMid meet" color-interpolation-filters="sRGB" style="margin: auto;"> <rect data-v-0dd9719b="" x="0" y="0" width="100%" height="100%" fill="#feffff" fill-opacity="1" class="background"></rect> <!----> <g data-v-0dd9719b="" fill="#333" class="iconlinesvg-g iconlinesvg" transform="translate(105.13750457763672,85.42198991775513)"><g class="tp-name" transform="translate(0,0)"><g transform="translate(0, 0.9100451171142261)"><g><g class="imagesvg"><g><rect fill="#333" fill-opacity="0" stroke-width="2" x="0" y="0" width="62.92150393482954" height="63.17990976577155" class="image-rect"></rect> <svg x="0" y="0" width="62.92150393482954" height="63.17990976577155" filtersec="colorsb1106806342" class="image-svg-svg primary" style="overflow: visible;"><svg xmlns="http://www.w3.org/2000/svg" viewBox="0.00027549266815185547 0 96.0733413696289 96.46803283691406"><title>资源 71</title><path d="M48.76 96.46a20.44 20.44 0 0 1-11.36-3.07c-1.5-.89-1.79-2.17-1.16-3.82 2.28-5.94 4.48-11.91 6.74-17.85 2.89-7.6 5.82-15.19 8.72-22.79q5.46-14.28 10.91-28.58c2.29-6 4.63-12 6.81-18A2.15 2.15 0 0 1 71.85.63h22.08c2.23 0 2.54.42 1.75 2.52-3.9 10.39-7.86 20.75-11.74 31.13-3.16 8.44-6.23 16.92-9.38 25.36s-6.12 17.17-9.69 25.53a17.78 17.78 0 0 1-16.11 11.29z" fill="#3d82fe"></path><path d="M16.36 45.36c.25-2.78 1.61-5.22 2.54-7.77 3.83-10.4 7.8-20.75 11.76-31.1a22.78 22.78 0 0 0 .92-2.66c.81-3.37 3-3.89 6-3.82C43.9.15 50.22.07 56.54 0c1.8 0 2.52.33 1.92 2.46C57 7.55 55 12.38 53.18 17.28q-9.34 24.8-18.86 49.54c-1.16 3.06-2.43 6.09-3.55 9.17-.3.82-.48 1.51-1.54 1.56s-1.52-.63-1.86-1.54C25 69.64 22.59 63.28 20.2 56.92c-1.14-3.05-2.23-6.12-3.39-9.16a7.34 7.34 0 0 1-.45-2.4zM21.47 1.91c-.68 1.84-1.31 3.57-2 5.3l-7.6 20.31c-.24.62-.33 1.44-1.15 1.45s-.68-.88-.87-1.37C7 19.93 4.06 12.25 1.23 4.55.8 3.4-.72 2.2.41 1 1.26.08 2.82.67 4.06.66c5.13-.05 10.26 0 15.39 0 .99-.02 2.03-.08 2.02 1.25z" fill="#24cc6d"></path></svg></svg> <!----></g></g></g></g><g transform="translate(66, 0)"><g data-gra="path-name" fill="#333" transform="scale(1)"><path d="M12.48 0L3.64 0L3.64-37.57L12.48-37.57L12.48 0ZM12.48-43.55L3.64-43.55L3.64-50.90L12.48-50.90L12.48-43.55Z" transform="translate(-3.64, 52.65)"></path></g></g><g transform="translate(78, 0)"><g data-gra="path-name" fill="#333" transform="scale(1)"><path d="M12.22 12.35L3.38 12.35L3.38-37.57L12.22-37.57L12.22-34.71Q13.85-36.27 15.79-37.21Q17.75-38.16 19.89-38.16L19.89-38.16Q22.43-38.16 24.05-36.98Q25.68-35.81 26.59-33.90Q27.50-31.98 27.85-29.80Q28.21-27.63 28.21-25.61L28.21-25.61L28.21-12.87Q28.21-9.17 27.33-6.11Q26.46-3.06 24.54-1.24Q22.62 0.58 19.44 0.58L19.44 0.58Q17.42 0.58 15.63-0.39Q13.85-1.36 12.22-2.86L12.22-2.86L12.22 12.35ZM16.12-5.59L16.12-5.59Q17.55-5.59 18.23-6.53Q18.91-7.48 19.14-9.07Q19.37-10.66 19.37-12.54L19.37-12.54L19.37-26Q19.37-27.76 19.11-29.15Q18.85-30.55 18.14-31.39Q17.42-32.24 16.05-32.24L16.05-32.24Q15.02-32.24 14.01-31.75Q13-31.27 12.22-30.62L12.22-30.62L12.22-6.89Q13.07-6.31 14.04-5.95Q15.02-5.59 16.12-5.59Z" transform="translate(-3.38, 52.65)"></path></g></g><g transform="translate(106, 0)"><g data-gra="path-name" fill="#333" transform="scale(1)"><path d="M14.76 0.58L14.76 0.58Q10.53 0.58 7.87-1.01Q5.20-2.60 3.93-5.69Q2.67-8.78 2.67-13.13L2.67-13.13L2.67-24.44Q2.67-28.93 3.93-31.98Q5.20-35.04 7.90-36.59Q10.60-38.16 14.76-38.16L14.76-38.16Q19.24-38.16 21.74-36.47Q24.25-34.77 25.32-31.56Q26.39-28.34 26.39-23.73L26.39-23.73L26.39-18.39L11.44-18.39L11.44-10.99Q11.44-9.17 11.80-8.00Q12.16-6.83 12.94-6.31Q13.71-5.79 14.82-5.79L14.82-5.79Q15.99-5.79 16.71-6.34Q17.42-6.89 17.75-7.96Q18.07-9.04 18.07-10.66L18.07-10.66L18.07-13.78L26.32-13.78L26.32-11.25Q26.32-5.53 23.46-2.47Q20.61 0.58 14.76 0.58ZM11.44-25.35L11.44-22.75L18.07-22.75L18.07-26.32Q18.07-28.28 17.75-29.48Q17.42-30.68 16.71-31.23Q15.99-31.79 14.69-31.79L14.69-31.79Q13.52-31.79 12.80-31.20Q12.09-30.62 11.77-29.25Q11.44-27.89 11.44-25.35L11.44-25.35Z" transform="translate(-2.665, 52.65)"></path></g></g></g> <g data-gra="path-slogan" fill-rule="" class="tp-slogan" fill="#333" transform="translate(5,70.0899658203125)"><rect x="0" height="1" y="3.580000877380371" width="29.172494888305664"></rect> <rect height="1" y="3.580000877380371" width="29.172494888305664" x="90.5524959564209"></rect> <g transform="translate(32.172494888305664,0)"><g transform="scale(1)"><path d="M0.62-3.94C0.62-3.30 0.71-2.72 0.88-2.21C1.05-1.71 1.29-1.28 1.60-0.93C1.91-0.58 2.27-0.32 2.69-0.13C3.11 0.05 3.57 0.14 4.07 0.14C4.57 0.14 5.02 0.04 5.41-0.16C5.80-0.36 6.16-0.64 6.47-1.00L5.90-1.61C5.65-1.33 5.38-1.11 5.09-0.96C4.81-0.81 4.48-0.73 4.09-0.73C3.72-0.73 3.38-0.81 3.08-0.96C2.78-1.11 2.52-1.33 2.32-1.61C2.11-1.89 1.95-2.23 1.83-2.62C1.71-3.02 1.66-3.46 1.66-3.96C1.66-4.45 1.72-4.89 1.84-5.28C1.96-5.67 2.12-6.01 2.34-6.28C2.56-6.56 2.82-6.77 3.12-6.92C3.42-7.07 3.76-7.14 4.14-7.14C4.48-7.14 4.77-7.07 5.02-6.94C5.27-6.81 5.50-6.63 5.71-6.41L6.28-7.04C6.04-7.30 5.75-7.53 5.39-7.72C5.03-7.92 4.61-8.02 4.13-8.02C3.62-8.02 3.16-7.92 2.73-7.73C2.30-7.55 1.93-7.28 1.62-6.92C1.31-6.57 1.06-6.14 0.89-5.64C0.71-5.14 0.62-4.57 0.62-3.94ZM7.93-7.87L7.93 0L8.93 0L8.93-7.87ZM12.08-4.14L12.08-7.07L13.40-7.07C14.02-7.07 14.49-6.96 14.82-6.76C15.15-6.55 15.31-6.18 15.31-5.66C15.31-5.15 15.15-4.77 14.82-4.52C14.49-4.27 14.02-4.14 13.40-4.14ZM15.41 0L16.54 0L14.54-3.43C15.08-3.57 15.51-3.82 15.83-4.19C16.15-4.56 16.31-5.05 16.31-5.66C16.31-6.07 16.24-6.42 16.10-6.70C15.97-6.98 15.78-7.20 15.53-7.38C15.29-7.56 15.00-7.68 14.66-7.76C14.32-7.83 13.95-7.87 13.55-7.87L11.09-7.87L11.09 0L12.08 0L12.08-3.32L13.51-3.32ZM17.60-3.94C17.60-3.30 17.69-2.72 17.86-2.21C18.03-1.71 18.27-1.28 18.58-0.93C18.89-0.58 19.25-0.32 19.67-0.13C20.09 0.05 20.55 0.14 21.05 0.14C21.55 0.14 22.00 0.04 22.39-0.16C22.78-0.36 23.14-0.64 23.45-1.00L22.88-1.61C22.63-1.33 22.36-1.11 22.07-0.96C21.79-0.81 21.46-0.73 21.07-0.73C20.70-0.73 20.36-0.81 20.06-0.96C19.76-1.11 19.50-1.33 19.30-1.61C19.09-1.89 18.93-2.23 18.81-2.62C18.69-3.02 18.64-3.46 18.64-3.96C18.64-4.45 18.70-4.89 18.82-5.28C18.94-5.67 19.10-6.01 19.32-6.28C19.54-6.56 19.80-6.77 20.10-6.92C20.40-7.07 20.74-7.14 21.12-7.14C21.46-7.14 21.75-7.07 22.00-6.94C22.25-6.81 22.48-6.63 22.69-6.41L23.26-7.04C23.02-7.30 22.73-7.53 22.37-7.72C22.01-7.92 21.59-8.02 21.11-8.02C20.60-8.02 20.14-7.92 19.71-7.73C19.28-7.55 18.91-7.28 18.60-6.92C18.29-6.57 18.04-6.14 17.87-5.64C17.69-5.14 17.60-4.57 17.60-3.94ZM24.91-7.87L24.91 0L29.35 0L29.35-0.85L25.91-0.85L25.91-7.87ZM30.74-7.87L30.74 0L35.40 0L35.40-0.85L31.74-0.85L31.74-3.71L34.73-3.71L34.73-4.56L31.74-4.56L31.74-7.03L35.28-7.03L35.28-7.87ZM39.49-7.87L39.49 0L43.93 0L43.93-0.85L40.49-0.85L40.49-7.87ZM45.52-7.03L45.52 0L46.52 0L46.52-7.03L48.90-7.03L48.90-7.87L43.14-7.87L43.14-7.03ZM50.32-7.87L50.32 0L52.33 0C52.92 0 53.45-0.09 53.90-0.27C54.36-0.45 54.74-0.71 55.06-1.05C55.37-1.39 55.60-1.81 55.76-2.30C55.92-2.79 56.00-3.35 56.00-3.97C56.00-5.23 55.69-6.19 55.06-6.86C54.42-7.54 53.50-7.87 52.28-7.87ZM52.21-0.82L51.31-0.82L51.31-7.06L52.21-7.06C53.13-7.06 53.82-6.79 54.28-6.26C54.74-5.74 54.97-4.97 54.97-3.97C54.97-2.97 54.74-2.20 54.28-1.64C53.82-1.09 53.13-0.82 52.21-0.82Z" transform="translate(-0.624, 8.016)"></path></g></g></g></g><defs v-gra="od"></defs></svg>